<svg width="38" height="39" viewBox="0 0 38 39" fill="none" xmlns="http://www.w3.org/2000/svg">
<path d="M19.261 38.2353C29.5073 38.2353 37.8135 29.8472 37.8135 19.5C37.8135 9.15279 29.5073 0.764708 19.261 0.764708C9.01473 0.764708 0.708496 9.15279 0.708496 19.5C0.708496 29.8472 9.01473 38.2353 19.261 38.2353Z" fill="#2A67B2"/>
<path d="M12.1254 19.5L21.0962 23.1237C23.6365 24.1492 26.3965 22.2613 26.3965 19.5L17.4257 15.8763C14.8868 14.8508 12.1254 16.7387 12.1254 19.5Z" fill="white"/>
<path d="M24.6023 14.4599L12.1254 19.5V15.6866C12.1254 14.5081 12.8361 13.4485 13.9195 13.0107L26.3965 7.97059V11.7839C26.3965 12.9625 25.6858 14.0221 24.6023 14.4599Z" fill="white"/>
<path d="M24.6023 25.9893L12.1254 31.0294V27.2161C12.1254 26.0375 12.8361 24.9779 13.9195 24.5401L26.3965 19.5V23.3134C26.3965 24.4919 25.6858 25.5515 24.6023 25.9893Z" fill="white"/>
<path d="M26.3965 19.5L19.2609 22.3824L12.1254 19.5L19.2609 16.6176L26.3965 19.5Z" fill="white"/>
<path opacity="0.2" d="M26.3965 19.5L19.2609 22.3824L12.1254 19.5L19.2609 16.6176L26.3965 19.5Z" fill="#0A1013"/>
</svg>
