<svg width="84" height="28" viewBox="0 0 84 28" fill="none" xmlns="http://www.w3.org/2000/svg">
<path d="M17.3803 20.3224C16.6513 20.3224 16.0042 20.1843 15.4394 19.9084C14.8745 19.6326 14.4321 19.2513 14.1122 18.7647C13.7931 18.2788 13.6335 17.7202 13.6338 17.0889C13.6338 16.0896 14.008 15.3174 14.7561 14.7724C15.5042 14.2273 16.5485 13.9547 17.8889 13.9544C18.6784 13.9524 19.4647 14.0518 20.2293 14.2501V13.7373C20.2293 13.2119 20.0635 12.8207 19.7318 12.5645C19.4002 12.3083 18.909 12.18 18.2582 12.18C17.8546 12.18 17.4025 12.2457 16.9016 12.3771C16.4007 12.5086 15.8121 12.719 15.1354 13.0081L14.0031 10.6619C14.8488 10.2808 15.6654 9.99488 16.4526 9.80436C17.2293 9.61499 18.0253 9.51901 18.8242 9.51843C20.2553 9.51843 21.3679 9.86345 22.1617 10.5535C22.9554 11.2435 23.3524 12.2131 23.3527 13.4624V20.3224H20.2296V19.5153C19.8289 19.7969 19.3833 20.007 18.9124 20.1362C18.4503 20.2604 17.9394 20.3224 17.3803 20.3224ZM16.6382 17.0298C16.6382 17.3587 16.7809 17.6152 17.0663 17.7989C17.3517 17.9825 17.7487 18.0744 18.2571 18.0747C18.615 18.077 18.9721 18.0372 19.3208 17.9565C19.6414 17.8824 19.9479 17.7556 20.2282 17.5818V16.2412C19.9265 16.162 19.6202 16.1026 19.3109 16.064C18.9937 16.0242 18.6744 16.0043 18.3547 16.0046C17.8081 16.0046 17.3854 16.0934 17.086 16.2709C16.7866 16.4485 16.6376 16.7015 16.6384 17.0298H16.6382Z" fill="#0A1013"/>
<path d="M25.031 20.3224V9.89285H28.1929V10.938C28.5129 10.5322 28.9202 10.205 29.3837 9.98162C29.839 9.76573 30.3464 9.65765 30.9061 9.65765C31.4653 9.67091 31.8623 9.75622 32.0967 9.91389V12.6936C31.8737 12.5838 31.6374 12.5043 31.3939 12.457C31.1308 12.4045 30.8631 12.378 30.5948 12.3783C30.1147 12.3751 29.6414 12.4939 29.2187 12.7242C28.7977 12.9525 28.4444 13.2891 28.1941 13.7001V20.3224H25.031Z" fill="#0A1013"/>
<path d="M36.9566 20.3224L32.5454 9.89285H35.9805L38.5373 16.2807L41.0941 9.89285H44.4513L40.0403 20.3224H36.9566Z" fill="#0A1013"/>
<path d="M48.2962 20.3224C47.5675 20.3224 46.9208 20.1843 46.3554 19.9084C45.7899 19.6326 45.3475 19.2513 45.0281 18.7647C44.7093 18.2788 44.5498 17.7202 44.55 17.0889C44.55 16.0896 44.9242 15.3174 45.6723 14.7724C46.4204 14.2273 47.4648 13.9547 48.8049 13.9544C49.5949 13.9524 50.3818 14.0515 51.147 14.2501V13.7373C51.147 13.2119 50.9812 12.8207 50.6493 12.5645C50.3173 12.3083 49.8261 12.18 49.1756 12.18C48.7723 12.18 48.3202 12.2457 47.8193 12.3771C47.3184 12.5086 46.7295 12.719 46.0528 13.0081L44.9208 10.6619C45.7665 10.2808 46.5828 9.99488 47.3703 9.80436C48.147 9.61499 48.943 9.51901 49.7419 9.51843C51.173 9.51843 52.2856 9.86345 53.0793 10.5535C53.8731 11.2435 54.2696 12.2131 54.2687 13.4624V20.3224H51.1459V19.5153C50.7452 19.7969 50.2996 20.007 49.8284 20.1362C49.3663 20.2604 48.8557 20.3224 48.2962 20.3224ZM47.5541 17.0298C47.5541 17.3587 47.6968 17.6152 47.9823 17.7989C48.2677 17.9825 48.6644 18.0744 49.1728 18.0747C49.5307 18.077 49.8877 18.0372 50.2365 17.9565C50.5573 17.8824 50.8639 17.7559 51.1442 17.5818V16.2412C50.8425 16.162 50.5362 16.1029 50.2268 16.064C49.9094 16.0242 49.5901 16.0043 49.2704 16.0046C48.7241 16.0046 48.3014 16.0934 48.002 16.2709C47.7026 16.4485 47.5536 16.7015 47.5547 17.0298H47.5541Z" fill="#0A1013"/>
<path d="M63.4812 3.41077V10.3071C63.0882 10.0828 62.6683 9.91047 62.2319 9.79431C62.1748 9.77875 62.1155 9.76549 62.0567 9.75079C61.6594 9.66086 61.2535 9.6159 60.8462 9.61705C59.8441 9.61705 58.9364 9.85369 58.1235 10.3267C57.8293 10.497 57.5515 10.695 57.2938 10.9176C56.8565 11.2975 56.4841 11.7471 56.1912 12.2489C55.7154 13.0571 55.4777 13.9608 55.4777 14.9598C55.4777 15.9588 55.7117 16.8618 56.1801 17.6692C56.6393 18.4676 57.295 19.1328 58.0833 19.6004C58.8836 20.0809 59.7716 20.321 60.7474 20.321C61.7749 20.321 62.6989 20.0186 63.5192 19.4139V20.3224H66.642V2.13302L63.4812 3.41077ZM63.4812 16.7736C63.2012 17.0454 62.869 17.2567 62.5053 17.3945C62.1409 17.5326 61.7376 17.6015 61.2952 17.6017C60.7877 17.6017 60.329 17.4864 59.9191 17.2559C59.5167 17.0331 59.1799 16.7065 58.9433 16.3093C58.7024 15.9101 58.5819 15.4607 58.5822 14.9612C58.5825 14.4617 58.7027 14.0115 58.9433 13.6108C59.1799 13.2136 59.5167 12.8871 59.9191 12.6643C60.329 12.4337 60.7877 12.3184 61.2952 12.3184C61.7073 12.3155 62.1172 12.3855 62.5053 12.5256C62.8687 12.655 63.2012 12.8597 63.4812 13.1269V16.7736Z" fill="#0A1013"/>
<path d="M77.9257 11.7067C77.5857 11.0876 77.0822 10.5757 76.4714 10.2281C75.8535 9.87325 75.1411 9.69599 74.3342 9.6957C73.267 9.6957 72.3431 9.99806 71.5624 10.6028V0.145885L68.4005 1.42334V20.3224H71.5607V13.2643C71.7774 13.0052 72.0471 12.7965 72.3513 12.653C72.6568 12.5086 73.0112 12.4365 73.4151 12.4362C73.9874 12.4362 74.4429 12.6072 74.7814 12.9487C75.1199 13.2903 75.2892 13.7503 75.2889 14.3288V20.3224H78.4506V13.8947C78.4508 13.0672 78.2759 12.3377 77.9257 11.7067Z" fill="#0A1013"/>
<path d="M81.7107 8.74597C81.2731 8.74597 80.9001 8.59234 80.5915 8.28479C79.9824 7.67892 79.975 6.68912 80.5747 6.07403C80.5801 6.06826 80.5858 6.06279 80.5915 6.05702C80.8995 5.75063 81.2725 5.59671 81.7107 5.59584C82.1488 5.59498 82.5218 5.74861 82.8298 6.05702C83.4389 6.66289 83.4463 7.65269 82.8466 8.26779C82.8412 8.27355 82.8355 8.27903 82.8298 8.28479C82.5215 8.59234 82.1485 8.74626 81.7107 8.74597Z" fill="#0A1013"/>
<path d="M83.2915 9.89285H80.1296V20.3224H83.2915V9.89285Z" fill="#0A1013"/>
<path d="M6.57561 20.3189C5.46389 20.3189 4.36529 20.0872 3.27983 19.624C2.20293 19.1668 1.21879 18.5134 0.376221 17.6965L2.26001 14.8949C3.09716 15.672 3.86894 16.2285 4.57508 16.5646C5.28007 16.9004 6.05043 17.0728 6.82992 17.069C7.3531 17.069 7.79779 17.0094 8.16399 16.8898C8.53019 16.7701 8.81161 16.5946 9.0077 16.3629C9.20207 16.136 9.30682 15.8449 9.30197 15.5449C9.30197 15.1116 9.15812 14.7756 8.87041 14.536C8.58271 14.2965 8.09235 14.1097 7.39906 13.9757L4.37785 13.3704C3.26584 13.1464 2.40957 12.6608 1.80904 11.9137C1.20851 11.1666 0.907677 10.2177 0.906536 9.06734C0.906536 8.05131 1.13202 7.1771 1.58328 6.4444C2.03453 5.71171 2.6813 5.15138 3.52415 4.76341C4.36815 4.37516 5.37226 4.18118 6.53622 4.18118C7.55661 4.18118 8.58356 4.37919 9.61651 4.77523C10.6495 5.17126 11.5454 5.72035 12.304 6.4225L10.5187 9.26911C9.10646 8.02941 7.70046 7.40941 6.30103 7.40941C5.84293 7.40941 5.44733 7.46533 5.11396 7.57745C4.78058 7.68958 4.5257 7.84638 4.34902 8.04814C4.17292 8.24846 4.07816 8.50874 4.08415 8.77651C4.08415 9.16505 4.21174 9.46395 4.46662 9.67292C4.7215 9.8819 5.13736 10.0462 5.71363 10.1658L8.55816 10.7037C9.87909 10.9429 10.8829 11.4436 11.5697 12.2054C12.2564 12.9672 12.5992 13.9532 12.5983 15.1629C12.5983 16.2239 12.3563 17.1394 11.8725 17.9087C11.3887 18.678 10.6954 19.272 9.7929 19.6903C8.89039 20.1091 7.81805 20.3186 6.57561 20.3189Z" fill="#0A1013"/>
<path d="M82.635 25.477L81.9074 27.3403C81.7721 27.6858 81.5813 27.8585 81.3349 27.8585C81.2643 27.8585 81.2039 27.8507 81.1537 27.835V27.5833C81.2088 27.6048 81.2619 27.6155 81.3131 27.6155C81.4416 27.6155 81.5378 27.5394 81.6015 27.3872L81.7247 27.093L81.0957 25.477H81.4102L81.8291 26.6934L81.8639 26.8266H81.8711C81.8769 26.7963 81.8885 26.7529 81.9059 26.6963L82.3436 25.477H82.635Z" fill="#0A1013"/>
<path d="M80.8565 27.0959H80.5739V26.1752C80.5739 25.8425 80.4536 25.6761 80.213 25.6761C80.0884 25.6761 79.9859 25.7229 79.9057 25.8166C79.8255 25.9103 79.7854 26.0289 79.7854 26.1723V27.0959H79.5013V25.477H79.7854V25.7449H79.7912C79.912 25.541 80.0874 25.439 80.3174 25.439C80.4932 25.439 80.6271 25.4961 80.7189 25.6102C80.8106 25.7234 80.8565 25.8888 80.8565 26.1064V27.0959Z" fill="#0A1013"/>
<path d="M77.8982 25.5898C78.0577 25.4892 78.2417 25.439 78.4505 25.439C78.837 25.439 79.0302 25.6439 79.0302 26.0537V27.0959H78.749V26.8456H78.7418C78.6307 27.0378 78.4669 27.134 78.2504 27.134C78.0949 27.134 77.9712 27.0915 77.8794 27.0066C77.7876 26.9217 77.7417 26.8071 77.7417 26.6626C77.7417 26.3601 77.919 26.184 78.2736 26.1342L78.749 26.0669C78.749 25.8025 78.6408 25.6703 78.4244 25.6703C78.2321 25.6703 78.0567 25.7356 77.8982 25.8664V25.5898ZM78.3736 26.3348C78.2422 26.3523 78.1514 26.3855 78.1012 26.4343C78.0519 26.4831 78.0272 26.5514 78.0272 26.6392C78.0272 26.7163 78.0543 26.7792 78.1084 26.828C78.1625 26.8768 78.234 26.9012 78.3229 26.9012C78.4466 26.9012 78.5485 26.8573 78.6287 26.7695C78.7089 26.6817 78.749 26.5714 78.749 26.4387V26.2835L78.3736 26.3348Z" fill="#0A1013"/>
<path d="M76.2488 26.8676V27.8409H75.9647V25.477H76.2488V25.7566H76.2546C76.3802 25.5449 76.5638 25.439 76.8054 25.439C77.0102 25.439 77.1706 25.5117 77.2866 25.6571C77.4035 25.8015 77.462 25.9957 77.462 26.2396C77.462 26.509 77.3958 26.7256 77.2634 26.8895C77.132 27.0525 76.9547 27.134 76.7315 27.134C76.5256 27.134 76.3667 27.0452 76.2546 26.8676H76.2488ZM76.2474 26.4284C76.2474 26.5602 76.2894 26.6714 76.3735 26.7622C76.4575 26.8519 76.5628 26.8968 76.6894 26.8968C76.8402 26.8968 76.9581 26.8383 77.0431 26.7212C77.1281 26.6041 77.1706 26.4421 77.1706 26.2352C77.1706 26.0606 77.131 25.924 77.0518 25.8254C76.9725 25.7259 76.8643 25.6761 76.7271 25.6761C76.587 25.6761 76.472 25.7264 76.3822 25.8269C76.2923 25.9274 76.2474 26.0562 76.2474 26.2133V26.4284Z" fill="#0A1013"/>
<path d="M75.4894 27.0959H75.2053V26.1664C75.2053 25.9908 75.1782 25.8654 75.1241 25.7903C75.07 25.7142 74.9811 25.6761 74.8574 25.6761C74.753 25.6761 74.6637 25.7254 74.5893 25.8239C74.5149 25.9225 74.4777 26.0391 74.4777 26.1738V27.0959H74.1936V26.1372C74.1936 25.8298 74.0762 25.6761 73.8414 25.6761C73.7331 25.6761 73.6433 25.7229 73.5718 25.8166C73.5012 25.9103 73.466 26.0298 73.466 26.1752V27.0959H73.1819V25.477H73.466V25.7332H73.4718C73.5858 25.5371 73.7525 25.439 73.9718 25.439C74.0791 25.439 74.1738 25.4688 74.2559 25.5283C74.338 25.5878 74.395 25.6683 74.4269 25.7698C74.5458 25.5493 74.7236 25.439 74.9603 25.439C75.313 25.439 75.4894 25.6585 75.4894 26.0977V27.0959Z" fill="#0A1013"/>
<path d="M71.1875 26.304C71.1875 26.0367 71.2614 25.8259 71.4093 25.6717C71.5571 25.5166 71.7576 25.439 72.0108 25.439C72.2514 25.439 72.4398 25.5136 72.576 25.6629C72.7132 25.8113 72.7819 26.0167 72.7819 26.2792C72.7819 26.5348 72.7089 26.7412 72.563 26.8983C72.4171 27.0554 72.2214 27.134 71.976 27.134C71.7363 27.134 71.545 27.0578 71.402 26.9056C71.259 26.7534 71.1875 26.5529 71.1875 26.304ZM71.4774 26.2953C71.4774 26.4816 71.5238 26.6285 71.6165 26.7358C71.7103 26.8432 71.8359 26.8968 71.9934 26.8968C72.1557 26.8968 72.2794 26.8446 72.3644 26.7402C72.4495 26.6348 72.492 26.4841 72.492 26.2879C72.492 26.0908 72.4495 25.9396 72.3644 25.8342C72.2794 25.7288 72.1557 25.6761 71.9934 25.6761C71.8339 25.6761 71.7078 25.7312 71.6151 25.8415C71.5233 25.9518 71.4774 26.103 71.4774 26.2953Z" fill="#0A1013"/>
<path d="M70.8816 27.0022C70.7164 27.09 70.5091 27.1339 70.2598 27.1339C69.9381 27.1339 69.681 27.031 69.4888 26.8251C69.2965 26.6182 69.2003 26.345 69.2003 26.0054C69.2003 25.6405 69.3085 25.3468 69.525 25.1243C69.7414 24.9018 70.0163 24.7906 70.3497 24.7906C70.5642 24.7906 70.7415 24.8213 70.8816 24.8828V25.1887C70.7212 25.0989 70.5449 25.054 70.3526 25.054C70.1023 25.054 69.8985 25.1384 69.7409 25.3073C69.5834 25.4751 69.5047 25.702 69.5047 25.9879C69.5047 26.2591 69.5781 26.4748 69.725 26.6348C69.8719 26.7939 70.0642 26.8734 70.3019 26.8734C70.5241 26.8734 70.7174 26.8227 70.8816 26.7212V27.0022Z" fill="#0A1013"/>
<path d="M67.9234 27.0959H67.6393V26.8266H67.6335C67.5166 27.0315 67.3349 27.1339 67.0885 27.1339C66.8856 27.1339 66.7242 27.0612 66.6044 26.9158C66.4846 26.7695 66.4247 26.5724 66.4247 26.3245C66.4247 26.0571 66.4923 25.843 66.6276 25.6819C66.7629 25.52 66.9397 25.439 67.1581 25.439C67.3765 25.439 67.5349 25.5248 67.6335 25.6966H67.6393V24.6998H67.9234V27.0959ZM67.6407 26.1328C67.6407 26.003 67.5982 25.8947 67.5132 25.8078C67.4291 25.72 67.3253 25.6761 67.2016 25.6761C67.0508 25.6761 66.932 25.7332 66.845 25.8473C66.758 25.9605 66.7146 26.1152 66.7146 26.3113C66.7146 26.4919 66.7561 26.6348 66.8392 26.7402C66.9233 26.8446 67.0349 26.8968 67.174 26.8968C67.3112 26.8968 67.4233 26.8456 67.5103 26.7431C67.5973 26.6397 67.6407 26.5114 67.6407 26.3582V26.1328Z" fill="#0A1013"/>
<path d="M66.1537 26.3597H65.0318C65.0366 26.5324 65.0835 26.6661 65.1724 26.7607C65.2613 26.8544 65.3855 26.9012 65.5449 26.9012C65.7246 26.9012 65.8894 26.8432 66.0392 26.727V26.9832C65.8981 27.0837 65.7111 27.134 65.4782 27.134C65.2463 27.134 65.0651 27.0598 64.9347 26.9115C64.8052 26.7631 64.7405 26.5573 64.7405 26.2938C64.7405 26.0459 64.8115 25.8415 64.9535 25.6805C65.0966 25.5195 65.2739 25.439 65.4855 25.439C65.6952 25.439 65.8589 25.5073 65.9768 25.6439C66.0947 25.7795 66.1537 25.9698 66.1537 26.2147V26.3597ZM65.8696 26.1299C65.8686 25.9835 65.8343 25.8703 65.7667 25.7903C65.699 25.7103 65.6038 25.6703 65.4811 25.6703C65.3681 25.6703 65.27 25.7127 65.1869 25.7976C65.1048 25.8825 65.0531 25.9932 65.0318 26.1299H65.8696Z" fill="#0A1013"/>
<path d="M64.0215 24.9062C64.0215 24.8554 64.0384 24.813 64.0722 24.7788C64.107 24.7437 64.1495 24.7262 64.1998 24.7262C64.251 24.7262 64.294 24.7432 64.3288 24.7774C64.3645 24.8115 64.3824 24.8545 64.3824 24.9062C64.3824 24.9569 64.3645 24.9994 64.3288 25.0335C64.294 25.0667 64.251 25.0833 64.1998 25.0833C64.1485 25.0833 64.106 25.0667 64.0722 25.0335C64.0384 24.9994 64.0215 24.9569 64.0215 24.9062ZM64.0548 27.0959V25.477H64.3389V27.0959H64.0548Z" fill="#0A1013"/>
<path d="M63.849 24.9443C63.7959 24.916 63.7384 24.9018 63.6766 24.9018C63.4988 24.9018 63.4099 25.0131 63.4099 25.2355V25.477H63.7853V25.7142H63.4099V27.0959H63.1287V25.7142H62.8547V25.477H63.1287V25.2224C63.1287 25.0487 63.178 24.9125 63.2765 24.814C63.376 24.7145 63.5021 24.6647 63.6548 24.6647C63.736 24.6647 63.8007 24.674 63.849 24.6925V24.9443Z" fill="#0A1013"/>
<path d="M62.201 24.9062C62.201 24.8554 62.218 24.813 62.2518 24.7788C62.2866 24.7437 62.3291 24.7262 62.3793 24.7262C62.4305 24.7262 62.4735 24.7432 62.5083 24.7774C62.5441 24.8115 62.562 24.8545 62.562 24.9062C62.562 24.9569 62.5441 24.9994 62.5083 25.0335C62.4735 25.0667 62.4305 25.0833 62.3793 25.0833C62.3281 25.0833 62.2856 25.0667 62.2518 25.0335C62.218 24.9994 62.201 24.9569 62.201 24.9062ZM62.2344 27.0959V25.477H62.5185V27.0959H62.2344Z" fill="#0A1013"/>
<path d="M61.8981 27.0798C61.8363 27.114 61.7527 27.131 61.6474 27.131C61.3604 27.131 61.2169 26.9705 61.2169 26.6495V25.7142H60.9415V25.4771H61.2169V25.0877L61.4996 24.997V25.4771H61.8981V25.7142H61.4996V26.5982C61.4996 26.7046 61.5174 26.7807 61.5532 26.8266C61.5889 26.8724 61.6484 26.8954 61.7315 26.8954C61.7952 26.8954 61.8508 26.8773 61.8981 26.8412V27.0798Z" fill="#0A1013"/>
<path d="M60.8546 25.761C60.8073 25.7268 60.742 25.7098 60.6589 25.7098C60.5488 25.7098 60.458 25.762 60.3865 25.8664C60.315 25.9698 60.2792 26.1064 60.2792 26.2762V27.0959H59.9951V25.477H60.2792V25.8064H60.285C60.3662 25.5683 60.5063 25.4492 60.7053 25.4492C60.7701 25.4492 60.8198 25.4565 60.8546 25.4712V25.761Z" fill="#0A1013"/>
<path d="M59.6168 26.3597H58.4949C58.4998 26.5324 58.5466 26.6661 58.6355 26.7607C58.7244 26.8544 58.8486 26.9012 59.008 26.9012C59.1878 26.9012 59.3525 26.8432 59.5023 26.727V26.9832C59.3612 27.0837 59.1742 27.134 58.9414 27.134C58.7095 27.134 58.5283 27.0598 58.3978 26.9115C58.2684 26.7631 58.2036 26.5573 58.2036 26.2938C58.2036 26.0459 58.2746 25.8415 58.4167 25.6805C58.5597 25.5195 58.737 25.439 58.9486 25.439C59.1583 25.439 59.3221 25.5073 59.44 25.6439C59.5578 25.7795 59.6168 25.9698 59.6168 26.2147V26.3597ZM59.3327 26.1299C59.3317 25.9835 59.2974 25.8703 59.2298 25.7903C59.1622 25.7103 59.067 25.6703 58.9443 25.6703C58.8312 25.6703 58.7331 25.7127 58.65 25.7976C58.5679 25.8825 58.5162 25.9932 58.4949 26.1299H59.3327Z" fill="#0A1013"/>
<path d="M57.8978 27.0022C57.7325 27.09 57.5253 27.1339 57.276 27.1339C56.9542 27.1339 56.6972 27.031 56.5049 26.8251C56.3126 26.6182 56.2164 26.345 56.2164 26.0054C56.2164 25.6405 56.3247 25.3468 56.5411 25.1243C56.7575 24.9018 57.0325 24.7906 57.3658 24.7906C57.5803 24.7906 57.7576 24.8213 57.8978 24.8828V25.1887C57.7373 25.0989 57.561 25.054 57.3687 25.054C57.1184 25.054 56.9146 25.1384 56.7571 25.3073C56.5996 25.4751 56.5208 25.702 56.5208 25.9879C56.5208 26.2591 56.5942 26.4748 56.7411 26.6348C56.888 26.7939 57.0803 26.8734 57.318 26.8734C57.5402 26.8734 57.7335 26.8227 57.8978 26.7212V27.0022Z" fill="#0A1013"/>
<path d="M54.0569 26.7022H55.0091V27.0959H53.5162V26.9276C53.5162 26.8095 53.5375 26.7017 53.58 26.6041C53.6235 26.5065 53.6829 26.4158 53.7583 26.3318C53.8337 26.2469 53.9506 26.1479 54.109 26.0347C54.254 25.9254 54.3554 25.8288 54.4134 25.7449C54.4714 25.66 54.5004 25.5702 54.5004 25.4756C54.5004 25.2716 54.3902 25.1697 54.1699 25.1697C53.9767 25.1697 53.7921 25.2477 53.6162 25.4039V24.9823C53.8124 24.8545 54.0327 24.7906 54.2772 24.7906C54.5014 24.7906 54.6787 24.8486 54.8091 24.9647C54.9396 25.0799 55.0048 25.2389 55.0048 25.4419C55.0048 25.5551 54.9859 25.6576 54.9483 25.7493C54.9106 25.84 54.856 25.9254 54.7845 26.0054C54.713 26.0855 54.5985 26.1816 54.441 26.2938C54.2893 26.4031 54.1873 26.4875 54.1351 26.547C54.083 26.6065 54.0569 26.6582 54.0569 26.7022Z" fill="#0A1013"/>
<path d="M52.2248 26.7022H53.1771V27.0959H51.6842V26.9276C51.6842 26.8095 51.7055 26.7017 51.748 26.6041C51.7915 26.5065 51.8509 26.4158 51.9263 26.3318C52.0016 26.2469 52.1185 26.1479 52.277 26.0347C52.422 25.9254 52.5234 25.8288 52.5814 25.7449C52.6394 25.66 52.6684 25.5702 52.6684 25.4756C52.6684 25.2716 52.5582 25.1697 52.3379 25.1697C52.1446 25.1697 51.9601 25.2477 51.7842 25.4039V24.9823C51.9804 24.8545 52.2007 24.7906 52.4451 24.7906C52.6693 24.7906 52.8466 24.8486 52.9771 24.9647C53.1075 25.0799 53.1728 25.2389 53.1728 25.4419C53.1728 25.5551 53.1539 25.6576 53.1162 25.7493C53.0785 25.84 53.0239 25.9254 52.9524 26.0054C52.8809 26.0855 52.7664 26.1816 52.6089 26.2938C52.4572 26.4031 52.3553 26.4875 52.3031 26.547C52.2509 26.6065 52.2248 26.6582 52.2248 26.7022Z" fill="#0A1013"/>
<path d="M49.8101 25.9996C49.8101 25.6073 49.8816 25.3077 50.0246 25.1009C50.1676 24.894 50.3744 24.7906 50.6449 24.7906C51.1609 24.7906 51.4189 25.176 51.4189 25.9469C51.4189 26.3265 51.3489 26.6197 51.2087 26.8266C51.0686 27.0325 50.8662 27.1354 50.6014 27.1354C50.0739 27.1354 49.8101 26.7568 49.8101 25.9996ZM50.284 25.9879C50.284 26.5109 50.3947 26.7724 50.6159 26.7724C50.8333 26.7724 50.9421 26.5031 50.9421 25.9645C50.9421 25.4239 50.8362 25.1536 50.6246 25.1536C50.3976 25.1536 50.284 25.4317 50.284 25.9879Z" fill="#0A1013"/>
<path d="M48.5607 26.7022H49.5129V27.0959H48.02V26.9276C48.02 26.8095 48.0413 26.7017 48.0838 26.6041C48.1273 26.5065 48.1867 26.4158 48.2621 26.3318C48.3374 26.2469 48.4544 26.1479 48.6128 26.0347C48.7578 25.9254 48.8592 25.8288 48.9172 25.7449C48.9752 25.66 49.0042 25.5702 49.0042 25.4756C49.0042 25.2716 48.894 25.1697 48.6737 25.1697C48.4805 25.1697 48.2959 25.2477 48.12 25.4039V24.9823C48.3162 24.8545 48.5365 24.7906 48.781 24.7906C49.0051 24.7906 49.1824 24.8486 49.3129 24.9647C49.4433 25.0799 49.5086 25.2389 49.5086 25.4419C49.5086 25.5551 49.4897 25.6576 49.452 25.7493C49.4144 25.84 49.3598 25.9254 49.2883 26.0054C49.2168 26.0855 49.1022 26.1816 48.9447 26.2938C48.793 26.4031 48.6911 26.4875 48.6389 26.547C48.5867 26.6065 48.5607 26.6582 48.5607 26.7022Z" fill="#0A1013"/>
<path d="M47.1605 25.7054C47.1605 25.6332 47.1881 25.5736 47.2431 25.5268C47.2982 25.48 47.3639 25.4565 47.4403 25.4565C47.5176 25.4565 47.5828 25.48 47.6359 25.5268C47.6891 25.5736 47.7156 25.6332 47.7156 25.7054C47.7156 25.7805 47.6891 25.8415 47.6359 25.8883C47.5828 25.9342 47.5156 25.9571 47.4345 25.9571C47.3572 25.9571 47.2919 25.9332 47.2388 25.8854C47.1866 25.8376 47.1605 25.7776 47.1605 25.7054ZM47.1605 26.8836C47.1605 26.8105 47.1881 26.7505 47.2431 26.7036C47.2982 26.6568 47.3639 26.6334 47.4403 26.6334C47.5176 26.6334 47.5828 26.6573 47.6359 26.7051C47.6891 26.7529 47.7156 26.8124 47.7156 26.8836C47.7156 26.9588 47.6891 27.0198 47.6359 27.0666C47.5828 27.1125 47.5156 27.1354 47.4345 27.1354C47.3591 27.1354 47.2944 27.1115 47.2402 27.0637C47.1871 27.0159 47.1605 26.9559 47.1605 26.8836Z" fill="#0A1013"/>
<path d="M46.4431 24.7789V27.0959H45.9721V25.3116C45.9141 25.3624 45.8349 25.4082 45.7344 25.4492C45.6339 25.4892 45.5416 25.5141 45.4575 25.5239V25.1184C45.7223 25.0404 45.9513 24.9272 46.1445 24.7789H46.4431Z" fill="#0A1013"/>
<path d="M43.4645 25.9996C43.4645 25.6073 43.536 25.3077 43.679 25.1009C43.822 24.894 44.0288 24.7906 44.2993 24.7906C44.8153 24.7906 45.0733 25.176 45.0733 25.9469C45.0733 26.3265 45.0033 26.6197 44.8632 26.8266C44.7231 27.0325 44.5206 27.1354 44.2559 27.1354C43.7283 27.1354 43.4645 26.7568 43.4645 25.9996ZM43.9384 25.9879C43.9384 26.5109 44.0491 26.7724 44.2704 26.7724C44.4878 26.7724 44.5965 26.5031 44.5965 25.9645C44.5965 25.4239 44.4907 25.1536 44.279 25.1536C44.052 25.1536 43.9384 25.4317 43.9384 25.9879Z" fill="#0A1013"/>
<path d="M41.6324 25.9996C41.6324 25.6073 41.704 25.3077 41.847 25.1009C41.99 24.894 42.1968 24.7906 42.4673 24.7906C42.9833 24.7906 43.2413 25.176 43.2413 25.9469C43.2413 26.3265 43.1712 26.6197 43.0311 26.8266C42.891 27.0325 42.6886 27.1354 42.4238 27.1354C41.8962 27.1354 41.6324 26.7568 41.6324 25.9996ZM42.1064 25.9879C42.1064 26.5109 42.217 26.7724 42.4383 26.7724C42.6557 26.7724 42.7644 26.5031 42.7644 25.9645C42.7644 25.4239 42.6586 25.1536 42.447 25.1536C42.2199 25.1536 42.1064 25.4317 42.1064 25.9879Z" fill="#0A1013"/>
<path d="M41.3919 25.117C41.2102 25.4458 41.0745 25.7107 40.9846 25.9117C40.8957 26.1128 40.8233 26.3084 40.7672 26.4987C40.7112 26.689 40.6682 26.888 40.6382 27.0959H40.1353C40.1836 26.8002 40.2686 26.5011 40.3904 26.1986C40.5131 25.8952 40.6822 25.5683 40.8977 25.218H39.8265V24.8286H41.3919V25.117Z" fill="#0A1013"/>
<path d="M38.551 26.7022H39.5033V27.0959H38.0104V26.9276C38.0104 26.8095 38.0316 26.7017 38.0742 26.6041C38.1176 26.5065 38.1771 26.4158 38.2524 26.3318C38.3278 26.2469 38.4447 26.1479 38.6032 26.0347C38.7481 25.9254 38.8496 25.8288 38.9076 25.7449C38.9655 25.66 38.9945 25.5702 38.9945 25.4756C38.9945 25.2716 38.8844 25.1697 38.6641 25.1697C38.4708 25.1697 38.2862 25.2477 38.1104 25.4039V24.9823C38.3065 24.8545 38.5269 24.7906 38.7713 24.7906C38.9955 24.7906 39.1728 24.8486 39.3033 24.9647C39.4337 25.0799 39.4989 25.2389 39.4989 25.4419C39.4989 25.5551 39.4801 25.6576 39.4424 25.7493C39.4047 25.84 39.3501 25.9254 39.2786 26.0054C39.2071 26.0855 39.0926 26.1816 38.9351 26.2938C38.7834 26.4031 38.6815 26.4875 38.6293 26.547C38.5771 26.6065 38.551 26.6582 38.551 26.7022Z" fill="#0A1013"/>
<path d="M34.6608 25.9923C34.6608 25.6371 34.7632 25.3482 34.968 25.1258C35.1739 24.9023 35.4454 24.7906 35.7826 24.7906C36.1034 24.7906 36.3614 24.8984 36.5566 25.114C36.7528 25.3297 36.8508 25.6068 36.8508 25.9454C36.8508 26.2987 36.7489 26.5855 36.545 26.8061C36.3421 27.0256 36.0759 27.1354 35.7464 27.1354C35.4246 27.1354 35.1632 27.029 34.9622 26.8163C34.7613 26.6026 34.6608 26.3279 34.6608 25.9923ZM35.1637 25.9659C35.1637 26.1864 35.2164 26.367 35.3217 26.5075C35.427 26.647 35.5715 26.7168 35.7551 26.7168C35.9425 26.7168 36.0884 26.6499 36.1928 26.5163C36.2972 26.3816 36.3493 26.2011 36.3493 25.9747C36.3493 25.7386 36.2986 25.5522 36.1971 25.4156C36.0957 25.278 35.9527 25.2092 35.7681 25.2092C35.5807 25.2092 35.4328 25.2794 35.3246 25.42C35.2173 25.5605 35.1637 25.7425 35.1637 25.9659Z" fill="#0A1013"/>
<path d="M32.9127 26.525C33.0934 26.6763 33.2988 26.7519 33.5288 26.7519C33.6592 26.7519 33.7573 26.7295 33.823 26.6846C33.8887 26.6387 33.9215 26.5802 33.9215 26.5089C33.9215 26.4475 33.8955 26.3894 33.8433 26.3348C33.7911 26.2801 33.6534 26.206 33.4302 26.1123C33.0794 25.962 32.9041 25.7434 32.9041 25.4566C32.9041 25.2458 32.9833 25.0823 33.1418 24.9662C33.3012 24.8491 33.5118 24.7906 33.7737 24.7906C33.993 24.7906 34.1771 24.8194 34.3259 24.8769V25.3307C34.1752 25.2272 33.9988 25.1755 33.7969 25.1755C33.679 25.1755 33.5848 25.1975 33.5143 25.2414C33.4437 25.2843 33.4084 25.3424 33.4084 25.4156C33.4084 25.4741 33.4326 25.5283 33.4809 25.578C33.5292 25.6268 33.6486 25.6932 33.8389 25.7771C34.0621 25.8737 34.2153 25.9757 34.2984 26.083C34.3825 26.1903 34.4245 26.3182 34.4245 26.4665C34.4245 26.6841 34.3482 26.85 34.1955 26.9642C34.0428 27.0783 33.8259 27.1354 33.5447 27.1354C33.2877 27.1354 33.077 27.0934 32.9127 27.0095V26.525Z" fill="#0A1013"/>
<path d="M32.4954 24.8286V27.0959H32.0171V24.8286H32.4954Z" fill="#0A1013"/>
<path d="M30.0545 26.7885C29.8332 27.0178 29.5641 27.1325 29.2472 27.1325C29.0114 27.1325 28.8239 27.0744 28.6848 26.9583C28.5466 26.8412 28.4775 26.6802 28.4775 26.4753C28.4775 26.1669 28.6515 25.9371 28.9993 25.7859C28.8254 25.6522 28.7384 25.4936 28.7384 25.3102C28.7384 25.1521 28.793 25.0262 28.9022 24.9325C29.0114 24.8379 29.1549 24.7906 29.3327 24.7906C29.4999 24.7906 29.6351 24.8355 29.7385 24.9252C29.8429 25.014 29.8951 25.1301 29.8951 25.2736C29.8951 25.5078 29.753 25.6834 29.4689 25.8005C29.6844 25.8844 29.8888 26.0752 30.082 26.3728C30.2511 26.1377 30.3357 25.8605 30.3357 25.5414C30.3357 25.4653 30.326 25.3926 30.3067 25.3234H30.5763C30.5908 25.3819 30.598 25.4522 30.598 25.5341C30.598 25.7049 30.5647 25.8839 30.498 26.0713C30.4323 26.2577 30.3405 26.4304 30.2226 26.5895C30.3028 26.6997 30.37 26.7753 30.4241 26.8163C30.4792 26.8563 30.542 26.8763 30.6125 26.8763C30.6705 26.8763 30.7391 26.8607 30.8183 26.8295V27.0856C30.7372 27.1169 30.6531 27.1325 30.5661 27.1325C30.4753 27.1325 30.3932 27.111 30.3197 27.0681C30.2473 27.0251 30.1589 26.932 30.0545 26.7885ZM29.2544 25.6805C29.5047 25.5936 29.6298 25.4658 29.6298 25.297C29.6298 25.2102 29.6013 25.1414 29.5443 25.0906C29.4873 25.0389 29.4168 25.0131 29.3327 25.0131C29.2322 25.0131 29.1525 25.0409 29.0935 25.0965C29.0346 25.1511 29.0051 25.2228 29.0051 25.3116C29.0051 25.4658 29.0882 25.5888 29.2544 25.6805ZM29.9212 26.5836C29.8013 26.3943 29.6907 26.2518 29.5892 26.1562C29.4878 26.0596 29.3593 25.9815 29.2037 25.922C29.0462 25.9864 28.9336 26.0615 28.866 26.1474C28.7983 26.2323 28.7645 26.3382 28.7645 26.465C28.7645 26.5968 28.8095 26.7007 28.8993 26.7768C28.9892 26.8519 29.1061 26.8895 29.2501 26.8895C29.5148 26.8895 29.7385 26.7875 29.9212 26.5836Z" fill="#0A1013"/>
<path d="M25.8383 27.0373V26.629C25.9938 26.7246 26.1595 26.7724 26.3354 26.7724C26.4678 26.7724 26.5712 26.7397 26.6456 26.6743C26.7209 26.608 26.7586 26.5187 26.7586 26.4065C26.7586 26.1713 26.5992 26.0537 26.2803 26.0537C26.1624 26.0537 26.0267 26.0625 25.873 26.0801L25.9571 24.8286H27.1456V25.218H26.3354L26.3035 25.6951C26.3837 25.6883 26.4576 25.6849 26.5253 25.6849C26.7446 25.6849 26.9176 25.7454 27.0442 25.8664C27.1717 25.9874 27.2355 26.1513 27.2355 26.3582C27.2355 26.5865 27.1587 26.7734 27.005 26.9188C26.8514 27.0632 26.6427 27.1354 26.3789 27.1354C26.1653 27.1354 25.9851 27.1027 25.8383 27.0373Z" fill="#0A1013"/>
<path d="M25.0149 24.7789V27.0959H24.5438V25.3116C24.4859 25.3624 24.4066 25.4082 24.3061 25.4492C24.2056 25.4892 24.1134 25.5141 24.0293 25.5239V25.1184C24.2941 25.0404 24.5231 24.9272 24.7163 24.7789H25.0149Z" fill="#0A1013"/>
<path d="M22.0364 25.9996C22.0364 25.6073 22.1079 25.3077 22.2509 25.1009C22.3939 24.894 22.6007 24.7906 22.8712 24.7906C23.3872 24.7906 23.6452 25.176 23.6452 25.9469C23.6452 26.3265 23.5752 26.6197 23.4351 26.8266C23.295 27.0325 23.0925 27.1354 22.8278 27.1354C22.3002 27.1354 22.0364 26.7568 22.0364 25.9996ZM22.5103 25.9879C22.5103 26.5109 22.621 26.7724 22.8423 26.7724C23.0597 26.7724 23.1684 26.5031 23.1684 25.9645C23.1684 25.4239 23.0626 25.1536 22.8509 25.1536C22.6239 25.1536 22.5103 25.4317 22.5103 25.9879Z" fill="#0A1013"/>
<path d="M20.787 26.7022H21.7392V27.0959H20.2463V26.9276C20.2463 26.8095 20.2676 26.7017 20.3101 26.6041C20.3536 26.5065 20.413 26.4158 20.4884 26.3318C20.5638 26.2469 20.6807 26.1479 20.8391 26.0347C20.9841 25.9254 21.0855 25.8288 21.1435 25.7449C21.2015 25.66 21.2305 25.5702 21.2305 25.4756C21.2305 25.2716 21.1203 25.1697 20.9 25.1697C20.7068 25.1697 20.5222 25.2477 20.3463 25.4039V24.9823C20.5425 24.8545 20.7628 24.7906 21.0073 24.7906C21.2315 24.7906 21.4088 24.8486 21.5392 24.9647C21.6697 25.0799 21.7349 25.2389 21.7349 25.4419C21.7349 25.5551 21.716 25.6576 21.6784 25.7493C21.6407 25.84 21.5861 25.9254 21.5146 26.0054C21.4431 26.0855 21.3286 26.1816 21.1711 26.2938C21.0194 26.4031 20.9174 26.4875 20.8652 26.547C20.8131 26.6065 20.787 26.6582 20.787 26.7022Z" fill="#0A1013"/>
<path d="M19.3868 25.7054C19.3868 25.6332 19.4144 25.5736 19.4695 25.5268C19.5245 25.48 19.5902 25.4565 19.6666 25.4565C19.7439 25.4565 19.8091 25.48 19.8622 25.5268C19.9154 25.5736 19.942 25.6332 19.942 25.7054C19.942 25.7805 19.9154 25.8415 19.8622 25.8883C19.8091 25.9342 19.7419 25.9571 19.6608 25.9571C19.5835 25.9571 19.5183 25.9332 19.4651 25.8854C19.4129 25.8376 19.3868 25.7776 19.3868 25.7054ZM19.3868 26.8836C19.3868 26.8105 19.4144 26.7505 19.4695 26.7036C19.5245 26.6568 19.5902 26.6334 19.6666 26.6334C19.7439 26.6334 19.8091 26.6573 19.8622 26.7051C19.9154 26.7529 19.942 26.8124 19.942 26.8836C19.942 26.9588 19.9154 27.0198 19.8622 27.0666C19.8091 27.1125 19.7419 27.1354 19.6608 27.1354C19.5854 27.1354 19.5207 27.1115 19.4666 27.0637C19.4134 27.0159 19.3868 26.9559 19.3868 26.8836Z" fill="#0A1013"/>
<path d="M18.6694 24.7789V27.0959H18.1984V25.3116C18.1404 25.3624 18.0612 25.4082 17.9607 25.4492C17.8602 25.4892 17.7679 25.5141 17.6838 25.5239V25.1184C17.9486 25.0404 18.1776 24.9272 18.3709 24.7789H18.6694Z" fill="#0A1013"/>
<path d="M15.6909 25.9996C15.6909 25.6073 15.7624 25.3077 15.9054 25.1009C16.0484 24.894 16.2552 24.7906 16.5258 24.7906C17.0418 24.7906 17.2998 25.176 17.2998 25.9469C17.2998 26.3265 17.2297 26.6197 17.0896 26.8266C16.9495 27.0325 16.7471 27.1354 16.4823 27.1354C15.9547 27.1354 15.6909 26.7568 15.6909 25.9996ZM16.1649 25.9879C16.1649 26.5109 16.2755 26.7724 16.4968 26.7724C16.7142 26.7724 16.8229 26.5031 16.8229 25.9645C16.8229 25.4239 16.7171 25.1536 16.5055 25.1536C16.2784 25.1536 16.1649 25.4317 16.1649 25.9879Z" fill="#0A1013"/>
<path d="M13.8588 25.9996C13.8588 25.6073 13.9303 25.3077 14.0733 25.1009C14.2163 24.894 14.4231 24.7906 14.6936 24.7906C15.2096 24.7906 15.4676 25.176 15.4676 25.9469C15.4676 26.3265 15.3976 26.6197 15.2574 26.8266C15.1173 27.0325 14.9149 27.1354 14.6501 27.1354C14.1226 27.1354 13.8588 26.7568 13.8588 25.9996ZM14.3327 25.9879C14.3327 26.5109 14.4434 26.7724 14.6646 26.7724C14.8821 26.7724 14.9908 26.5031 14.9908 25.9645C14.9908 25.4239 14.8849 25.1536 14.6733 25.1536C14.4463 25.1536 14.3327 25.4317 14.3327 25.9879Z" fill="#0A1013"/>
<path d="M12.1659 26.6553C12.2857 26.7334 12.4268 26.7724 12.5891 26.7724C12.9515 26.7724 13.1365 26.5343 13.1442 26.0581L13.1355 26.0552C13.037 26.2084 12.8848 26.285 12.679 26.285C12.4925 26.285 12.3388 26.2191 12.2181 26.0874C12.0982 25.9547 12.0383 25.7878 12.0383 25.5868C12.0383 25.3507 12.1108 25.1589 12.2557 25.0116C12.4007 24.8642 12.5896 24.7906 12.8225 24.7906C13.065 24.7906 13.2554 24.8838 13.3935 25.0701C13.5317 25.2565 13.6008 25.5166 13.6008 25.8503C13.6008 26.2465 13.5172 26.5597 13.35 26.79C13.1839 27.0203 12.9442 27.1354 12.6311 27.1354C12.4543 27.1354 12.2992 27.1066 12.1659 27.0491V26.6553ZM12.4978 25.5444C12.4978 25.6644 12.5263 25.7586 12.5833 25.8269C12.6413 25.8952 12.72 25.9293 12.8196 25.9293C12.9085 25.9293 12.9814 25.8966 13.0384 25.8313C13.0964 25.7659 13.1254 25.6849 13.1254 25.5883C13.1254 25.4722 13.0964 25.3707 13.0384 25.2838C12.9814 25.197 12.9046 25.1536 12.808 25.1536C12.7142 25.1536 12.6389 25.1911 12.5819 25.2663C12.5258 25.3414 12.4978 25.4341 12.4978 25.5444Z" fill="#0A1013"/>
<path d="M8.71912 25.9923C8.71912 25.6371 8.82154 25.3482 9.02639 25.1258C9.23221 24.9023 9.50373 24.7906 9.84096 24.7906C10.1618 24.7906 10.4198 24.8984 10.6149 25.114C10.8111 25.3297 10.9092 25.6068 10.9092 25.9454C10.9092 26.2987 10.8072 26.5855 10.6034 26.8061C10.4004 27.0256 10.1342 27.1354 9.80473 27.1354C9.48296 27.1354 9.22158 27.029 9.02059 26.8163C8.81961 26.6026 8.71912 26.3279 8.71912 25.9923ZM9.22206 25.9659C9.22206 26.1864 9.27472 26.367 9.38005 26.5075C9.48537 26.647 9.62983 26.7168 9.81342 26.7168C10.0009 26.7168 10.1468 26.6499 10.2511 26.5163C10.3555 26.3816 10.4077 26.2011 10.4077 25.9747C10.4077 25.7386 10.357 25.5522 10.2555 25.4156C10.154 25.278 10.011 25.2092 9.82647 25.2092C9.63901 25.2092 9.49117 25.2794 9.38295 25.42C9.27569 25.5605 9.22206 25.7425 9.22206 25.9659Z" fill="#0A1013"/>
<path d="M6.97122 26.525C7.15191 26.6763 7.35725 26.7519 7.58722 26.7519C7.71767 26.7519 7.81575 26.7295 7.88145 26.6846C7.94716 26.6387 7.98001 26.5802 7.98001 26.5089C7.98001 26.4475 7.95392 26.3894 7.90174 26.3348C7.84957 26.2801 7.71187 26.206 7.48866 26.1123C7.1379 25.962 6.96252 25.7434 6.96252 25.4566C6.96252 25.2458 7.04176 25.0823 7.20023 24.9662C7.35966 24.8491 7.57031 24.7906 7.83217 24.7906C8.05152 24.7906 8.23559 24.8194 8.3844 24.8769V25.3307C8.23366 25.2272 8.05731 25.1755 7.85536 25.1755C7.73748 25.1755 7.64327 25.1975 7.57273 25.2414C7.50219 25.2843 7.46692 25.3424 7.46692 25.4156C7.46692 25.4741 7.49108 25.5283 7.53939 25.578C7.5877 25.6268 7.70704 25.6932 7.8974 25.7771C8.12061 25.8737 8.27376 25.9757 8.35686 26.083C8.44093 26.1903 8.48296 26.3182 8.48296 26.4665C8.48296 26.6841 8.40662 26.85 8.25395 26.9642C8.10128 27.0783 7.88435 27.1354 7.60317 27.1354C7.34614 27.1354 7.13549 27.0934 6.97122 27.0095V26.525Z" fill="#0A1013"/>
<path d="M6.55375 24.8286V27.0959H6.07544V24.8286H6.55375Z" fill="#0A1013"/>
<path d="M4.71873 27.0959H4.43609V26.1752C4.43609 25.8425 4.31579 25.6761 4.07519 25.6761C3.95054 25.6761 3.84811 25.7229 3.76791 25.8166C3.68771 25.9103 3.64761 26.0289 3.64761 26.1723V27.0959H3.36353V25.477H3.64761V25.7449H3.65341C3.77419 25.541 3.94957 25.439 4.17955 25.439C4.35541 25.439 4.48924 25.4961 4.58103 25.6102C4.67283 25.7234 4.71873 25.8888 4.71873 26.1064V27.0959Z" fill="#0A1013"/>
<path d="M3.07371 27.0959H2.75339L2.52438 26.4753H1.58951L1.37354 27.0959H1.05322L1.90838 24.8286H2.21855L3.07371 27.0959ZM2.43451 26.2191L2.09535 25.2765C2.08472 25.2463 2.07313 25.1936 2.06057 25.1184H2.05332C2.04269 25.1867 2.03061 25.2394 2.01708 25.2765L1.68082 26.2191H2.43451Z" fill="#0A1013"/>
</svg>
